<?xml version="1.0" encoding="UTF-8" standalone="no"?>
<!-- Created with Inkscape (http://www.inkscape.org/) -->

<svg
   version="1.1"
   id="svg1"
   width="262"
   height="284.13654"
   viewBox="0 0 262 284.13654"
   sodipodi:docname="Formcraft Studio logo.svg"
   inkscape:version="1.4.3 (0d15f75, 2025-12-25)"
   xmlns:inkscape="http://www.inkscape.org/namespaces/inkscape"
   xmlns:sodipodi="http://sodipodi.sourceforge.net/DTD/sodipodi-0.dtd"
   xmlns="http://www.w3.org/2000/svg"
   xmlns:svg="http://www.w3.org/2000/svg">
  <defs
     id="defs1" />
  <sodipodi:namedview
     id="namedview1"
     pagecolor="#ffffff"
     bordercolor="#000000"
     borderopacity="0.25"
     inkscape:showpageshadow="2"
     inkscape:pageopacity="0.0"
     inkscape:pagecheckerboard="0"
     inkscape:deskcolor="#d1d1d1"
     showgrid="false"
     inkscape:zoom="2.1810811"
     inkscape:cx="233.14126"
     inkscape:cy="164.36803"
     inkscape:window-width="1920"
     inkscape:window-height="1009"
     inkscape:window-x="1912"
     inkscape:window-y="-8"
     inkscape:window-maximized="1"
     inkscape:current-layer="g1">
    <inkscape:page
       x="0"
       y="0"
       width="262"
       height="284.13654"
       id="page2"
       margin="0"
       bleed="0" />
  </sodipodi:namedview>
  <g
     inkscape:groupmode="layer"
     inkscape:label="Image"
     id="g1"
     transform="translate(-129.30359,-29.540127)">
    <path
       style="fill:#ffffff;fill-opacity:1"
       d="m 249.6181,306.8452 c -8.14798,-4.21023 -24.82072,-12.97918 -37.05052,-19.48657 -12.22981,-6.50739 -25.21835,-13.18387 -28.86343,-14.83663 -9.32645,-4.22881 -50.53836,-26.01376 -52.65056,-27.83151 -1.63658,-1.40844 -1.75,-6.18217 -1.75,-73.65629 V 98.883953 l 7.75,-4.35267 c 17.36498,-9.75279 36.39747,-20.054528 47.25,-25.575063 6.325,-3.217442 13.60313,-7.080632 16.17363,-8.584866 2.57049,-1.504234 11.79549,-6.416876 20.5,-10.916983 8.7045,-4.500106 20.81859,-10.832046 26.9202,-14.070979 6.1016,-3.238932 11.9516,-5.868321 13,-5.843085 2.9492,0.07099 50.90617,25.613548 50.90617,27.113344 0,0.729982 -3.375,3.168645 -7.5,5.419251 -13.64465,7.444541 -31.14497,17.610403 -30.8199,17.903153 0.52077,0.46898 34.75005,18.408498 56.3199,29.517165 11,5.6651 20.5625,10.73802 21.25,11.27314 0.97221,0.75673 1.25,12.82521 1.25,54.30639 v 53.33345 l -6.75,3.92041 c -19.37983,11.25585 -67.95394,37.48705 -69.27843,37.41204 -0.84064,-0.0476 -6.87557,-2.41463 -13.41095,-5.26005 -6.53537,-2.84543 -17.54758,-7.34582 -24.47156,-10.00088 -6.92398,-2.65506 -13.45038,-5.16394 -14.5031,-5.57528 -4.21705,-1.64778 -0.24922,1.61112 7.17169,5.89032 14.31014,8.25181 44.28289,24.70166 45.00811,24.70166 0.75774,0 30.32269,-16.4951 58.73424,-32.76945 l 26,-14.893 v -58.77655 -58.77655 l -12.5,-6.43679 c -6.875,-3.54023 -22.74656,-11.647627 -35.27014,-18.016427 l -22.77013,-11.579648 5.5489,-3.47086 5.54889,-3.470856 27.22124,14.292234 c 14.97168,7.86073 30.70827,16.116007 34.9702,18.345067 l 7.74896,4.05283 -0.24896,62.95729 -0.24896,62.95729 -5.5,3.11942 c -3.025,1.71568 -13.375,7.63913 -23,13.16321 -21.13993,12.13286 -66.81127,37.81388 -72.84958,40.96335 l -4.34959,2.26867 4.52488,2.19835 4.52487,2.19836 12.82471,-7.07084 c 7.05359,-3.88897 23.84971,-13.2447 37.32471,-20.79053 13.475,-7.54582 31.8125,-17.77438 40.75,-22.73011 l 16.25,-9.01043 -0.0201,-68.11202 -0.0201,-68.11201 -34.95901,-17.920477 C 308.63873,64.765996 309.7073,65.593524 318.42143,62.480612 c 3.554,-1.26958 3.88046,-1.154251 18.5,6.535498 8.18519,4.305335 22.98216,12.009575 32.88216,17.120533 9.9,5.11096 18.7875,10.25716 19.75,11.436 1.63034,1.99679 1.75,7.029137 1.75,73.598307 0,46.20077 -0.357,72.12201 -1.0101,73.34235 -0.55556,1.03807 -4.94306,4.0152 -9.75,6.61586 -8.72891,4.72252 -89.04818,49.71993 -103.2399,57.83827 -11.48466,6.56977 -10.75585,6.62564 -27.68549,-2.12223 z m 53.30763,-63.6625 c 12.03282,-6.77145 25.36536,-14.22797 29.62786,-16.57005 l 7.75,-4.25832 V 206.9433 191.53226 l -6.75,3.63375 c -3.7125,1.99855 -16.4686,8.96504 -28.34688,15.48107 -11.87828,6.51604 -21.89078,11.84734 -22.25,11.84734 -0.35922,0 -0.65312,-20.475 -0.65312,-45.5 0,-25.025 0.3375,-45.49253 0.75,-45.48339 0.4125,0.009 7.05,3.34219 14.75,7.40679 l 14,7.39019 0.28275,11.09321 c 0.15551,6.10126 0.60551,11.07718 1,11.05761 0.39449,-0.0196 6.56725,-3.33098 13.71725,-7.35866 l 13,-7.32306 0.2779,-11.89134 0.27791,-11.89135 -33.84164,-16.89524 -33.84164,-16.895227 -9.93627,5.499907 -9.93626,5.49992 -0.25703,67.1348 -0.25704,67.1348 13.75704,6.95814 c 7.56636,3.82697 14.03699,6.9817 14.37917,7.01052 0.34218,0.0288 10.46718,-5.4879 22.5,-12.25934 z M 182.57999,219.62555 c -0.20421,-30.01895 -0.0742,-33.00275 1.5,-34.41222 0.94798,-0.84881 6.6736,-4.23036 12.7236,-7.51456 6.05,-3.2842 18.2,-10.01713 27,-14.96206 l 16,-8.9908 0.27159,-19.12574 c 0.14938,-10.51916 -0.0399,-19.12575 -0.42066,-19.12575 -0.77129,0 -26.68665,13.86342 -44.21545,23.65305 -6.25048,3.49082 -11.76298,6.34695 -12.25,6.34695 -0.48701,0 -0.88548,-5.39435 -0.88548,-11.98746 v -11.98745 l 3.75,-2.35079 c 5.60102,-3.51114 60.12114,-33.730137 81.50198,-45.174295 10.27551,-5.500001 18.69744,-10.339621 18.71539,-10.754711 0.0179,-0.415091 -5.94498,-3.733831 -13.25095,-7.374978 L 259.73643,49.244469 229.27001,65.724801 C 183.17983,90.656563 159.2349,103.58192 154.80359,105.92143 l -4,2.1118 -0.25734,64.22078 -0.25735,64.22078 15.75735,7.95704 c 8.66653,4.37636 15.98234,7.98079 16.25734,8.00984 0.275,0.029 0.39938,-14.73821 0.2764,-32.81612 z"
       id="path1"
       inkscape:export-filename="path1.png"
       inkscape:export-xdpi="300"
       inkscape:export-ydpi="300" />
  </g>
</svg>
